<svg xmlns="http://www.w3.org/2000/svg" xmlns:xlink="http://www.w3.org/1999/xlink" viewBox="0 0 595.28 595.28"><defs><style>.cls-1{fill:#fff;}.cls-2{fill:url(#Orange_Yellow);}.cls-3{stroke:#231f20;stroke-miterlimit:10;fill:url(#Orange_Yellow-2);}.cls-4{fill:url(#Orange_Yellow-3);}.cls-5{fill:url(#Orange_Yellow-4);}.cls-6{fill:url(#Orange_Yellow-5);}.cls-7{fill:url(#Orange_Yellow-6);}.cls-8{fill:url(#Orange_Yellow-7);}.cls-9{fill:url(#Orange_Yellow-8);}.cls-10{fill:url(#Orange_Yellow-9);}.cls-11{fill:url(#Orange_Yellow-10);}.cls-12{fill:url(#Orange_Yellow-11);}.cls-13{fill:url(#Orange_Yellow-12);}.cls-14{fill:url(#Orange_Yellow-13);}.cls-15{fill:url(#Orange_Yellow-14);}.cls-16{fill:url(#Orange_Yellow-15);}.cls-17{fill:url(#Orange_Yellow-16);}.cls-18{fill:#f7941d;}.cls-19{fill:#fbb040;}.cls-20{fill:#231f20;}.cls-21{fill:#ffde17;}.cls-22{fill:url(#Orange_Yellow-17);}</style><linearGradient id="Orange_Yellow" x1="158.26" y1="203.83" x2="199" y2="203.83" gradientTransform="matrix(1, 0, 0, 1, -0.88, 0.97)" gradientUnits="userSpaceOnUse"><stop offset="0" stop-color="#fff33b"/><stop offset="0.04" stop-color="#fee72e"/><stop offset="0.12" stop-color="#fed51b"/><stop offset="0.2" stop-color="#fdca10"/><stop offset="0.28" stop-color="#fdc70c"/><stop offset="0.67" stop-color="#f3903f"/><stop offset="0.89" stop-color="#ed683c"/><stop offset="1" stop-color="#e93e3a"/></linearGradient><linearGradient id="Orange_Yellow-2" x1="184.51" y1="228.93" x2="184.51" y2="228.93" xlink:href="#Orange_Yellow"/><linearGradient id="Orange_Yellow-3" x1="199.07" y1="192.31" x2="210.37" y2="192.31" xlink:href="#Orange_Yellow"/><linearGradient id="Orange_Yellow-4" x1="202.14" y1="201.8" x2="249.35" y2="201.8" xlink:href="#Orange_Yellow"/><linearGradient id="Orange_Yellow-5" x1="244.39" y1="253.91" x2="261.27" y2="253.91" xlink:href="#Orange_Yellow"/><linearGradient id="Orange_Yellow-6" x1="204.97" y1="191.82" x2="454.59" y2="191.82" xlink:href="#Orange_Yellow"/><linearGradient id="Orange_Yellow-7" x1="149.39" y1="169.23" x2="197.77" y2="169.23" xlink:href="#Orange_Yellow"/><linearGradient id="Orange_Yellow-8" x1="184.02" y1="152.1" x2="201.86" y2="152.1" xlink:href="#Orange_Yellow"/><linearGradient id="Orange_Yellow-9" x1="219.22" y1="220.1" x2="230.81" y2="220.1" xlink:href="#Orange_Yellow"/><linearGradient id="Orange_Yellow-10" x1="178.48" y1="201.73" x2="189.67" y2="201.73" xlink:href="#Orange_Yellow"/><linearGradient id="Orange_Yellow-11" x1="167.41" y1="387.64" x2="186.29" y2="387.64" xlink:href="#Orange_Yellow"/><linearGradient id="Orange_Yellow-12" x1="141.01" y1="273.01" x2="221.58" y2="273.01" xlink:href="#Orange_Yellow"/><linearGradient id="Orange_Yellow-13" x1="302.55" y1="239.81" x2="349.77" y2="239.81" gradientTransform="matrix(1, 0, 0, 1, 0, 0)" xlink:href="#Orange_Yellow"/><linearGradient id="Orange_Yellow-14" x1="344.09" y1="242.64" x2="382.16" y2="242.64" gradientTransform="matrix(1, 0, 0, 1, 0, 0)" xlink:href="#Orange_Yellow"/><linearGradient id="Orange_Yellow-15" x1="376.39" y1="242.64" x2="414.46" y2="242.64" gradientTransform="matrix(1, 0, 0, 1, 0, 0)" xlink:href="#Orange_Yellow"/><linearGradient id="Orange_Yellow-16" x1="406.45" y1="255.39" x2="454.33" y2="255.39" gradientTransform="matrix(1, 0, 0, 1, 0, 0)" xlink:href="#Orange_Yellow"/><linearGradient id="Orange_Yellow-17" x1="263.27" y1="235.21" x2="300.04" y2="235.21" gradientTransform="matrix(1, 0, 0, 1, 0, 0)" xlink:href="#Orange_Yellow"/></defs><title>Sassy Braidy Collections TRANSPARENT Background - SVG</title><g id="Layer_4" data-name="Layer 4"><rect class="cls-1" width="595.28" height="595.28"/></g><g id="Layer_2" data-name="Layer 2"><path class="cls-2" d="M168.64,240.31a33.71,33.71,0,0,1-9.81-20,33,33,0,0,1,.82-11.57A38.62,38.62,0,0,1,164.19,198a57.9,57.9,0,0,1,15.59-16.53c1.51-1.13,3.11-2.12,4.67-3.15s3.25-1.91,4.87-2.8a22.65,22.65,0,0,0,4.31-3,8.16,8.16,0,0,0,2.82-4.44,7.83,7.83,0,0,1-1.69,5.41,19.38,19.38,0,0,1-4.07,4.17c-1.44,1.16-2.87,2.28-4.32,3.37l-4.18,3.48c-1.34,1.22-2.75,2.35-4,3.63L176.24,190,174.39,192c-1.26,1.27-2.36,2.66-3.52,4a51,51,0,0,0-3.06,4.31,34.92,34.92,0,0,0-5.91,19.79A38.17,38.17,0,0,0,168.64,240.31Z" transform="translate(0 0)"/><path class="cls-3" d="M184.35,229.31" transform="translate(0 0)"/><path class="cls-4" d="M200.3,170.44a88.28,88.28,0,0,1,5.56,10.21c.81,1.74,1.6,3.49,2.33,5.25.19.45.37.87.55,1.35l.52,1.53a14.16,14.16,0,0,1,.34,1.54,11.79,11.79,0,0,1,.23,1.53,37.85,37.85,0,0,1-.8,11.87,52.31,52.31,0,0,1-3.58,11.1c.43-3.86.9-7.66,1.18-11.44.16-1.89.21-3.77.27-5.63,0-.93,0-1.87-.08-2.78l-.07-1.37-.16-1.34a9,9,0,0,0-.23-1.3,12.39,12.39,0,0,0-.3-1.27l-.39-1.21-.5-1.34q-1-2.71-1.93-5.46A87.54,87.54,0,0,1,200.3,170.44Z" transform="translate(0 0)"/><path class="cls-5" d="M204.34,171.6a24.87,24.87,0,0,0,5.46,8c2.28,2.29,4.83,4.33,7.32,6.47a54.87,54.87,0,0,1,13,15.06c3.45,5.91,4.84,12.74,5.19,19.38a66.11,66.11,0,0,1-2.1,19.77l-1.16-.65h0A49.45,49.45,0,0,0,243,216.91a48.16,48.16,0,0,0-1.41-24.61,42.65,42.65,0,0,0-14.14-19.82c-6.51-5.23-14.52-8.59-23.14-10.56a42.32,42.32,0,0,1,25.81,6.86,40.88,40.88,0,0,1,10.12,9.48,42.88,42.88,0,0,1,6.4,12.36,47.87,47.87,0,0,1,.65,27.29,44.13,44.13,0,0,1-14.23,22.69h0l-1.5,1.71.34-2.36a91.51,91.51,0,0,0,.87-9.65,81.7,81.7,0,0,0-.11-9.65c-.46-6.39-1.78-12.73-4.76-18.29a50.8,50.8,0,0,0-5.32-8,81.52,81.52,0,0,0-6.63-7.06,90.57,90.57,0,0,1-6.9-7.08A23.44,23.44,0,0,1,204.34,171.6Z" transform="translate(0 0)"/><path class="cls-6" d="M260.45,257.71a10.72,10.72,0,0,1,.33,6.29,9.76,9.76,0,0,1-3.4,5.17c-3.2,2.5-7,3.42-10.71,4,3.47-1.37,7-2.87,9.49-5.37a8.09,8.09,0,0,0,2.29-4.33,8.29,8.29,0,0,0-.62-4.74,13.19,13.19,0,0,0-2.94-4.08,46.82,46.82,0,0,0-4.07-3.55l-2.23-1.72-1.12-.89a12.24,12.24,0,0,1-1.18-1.11,7.14,7.14,0,0,1-1.59-3,6,6,0,0,1,.07-3.33,16.67,16.67,0,0,1,3-5c.28-.36.58-.73.89-1.09-.29.35-.58.73-.86,1.11a9.89,9.89,0,0,0-1.22,2.51,6.73,6.73,0,0,0-.21,2.65,6.57,6.57,0,0,0,2.31,3.9c.25.29.59.52.87.81l1.07.87,2.21,1.76a36.89,36.89,0,0,1,4.3,3.94A16.22,16.22,0,0,1,260.45,257.71Z" transform="translate(0 0)"/><path class="cls-7" d="M454.09,203.46c-.67-4.41-1.93-8.69-4.28-12.05a16.52,16.52,0,0,0-9.52-6.52,18,18,0,0,0-5.6-.55l-6.63.36c-4.42.23-8.85.52-13.27.63-17.69.77-35.4.68-53.11.6s-35.41-.47-53.12-1.05c-15.52-.61-31.05-1.31-46.58-2.53a44.52,44.52,0,0,1,1.86,7,49.66,49.66,0,0,1,.71,11.49,52.41,52.41,0,0,1-1.83,11.34,45.35,45.35,0,0,1-4.58,10.48l-1.5,2.42L255,227.43a40.61,40.61,0,0,1-3.52,4.42c-.71.78-1.45,1.54-2.15,2.33.67-.81,1.36-1.61,2-2.42a28.35,28.35,0,0,0,3-4.69l1.29-2.49,1.13-2.55a76.58,76.58,0,0,0,3.45-10.49,55.14,55.14,0,0,0,1.76-10.82,46.2,46.2,0,0,0-2.65-18.58c-.08-.22-.16-.44-.25-.66-.27-.71-.56-1.43-.88-2.14a54,54,0,0,0-12.78-17.79,46.27,46.27,0,0,0-8.93-6.44,37.71,37.71,0,0,0-10.35-3.73,31.19,31.19,0,0,0-11-.17,37.44,37.44,0,0,0-10.59,3.54,33,33,0,0,1,21.81-4.5,40,40,0,0,1,20.33,9.9,54,54,0,0,1,13.65,18.24c.42.94.83,1.9,1.19,2.88,15.65-1.34,31.3-2.15,47-2.87,17.68-.69,35.38-1.19,53.06-1.39s35.39-.38,53.09.27c4.42.08,8.85.33,13.27.54l6.65.33a22.87,22.87,0,0,1,7.41,1.77,19.64,19.64,0,0,1,10.49,10A25.91,25.91,0,0,1,454.09,203.46Z" transform="translate(0 0)"/><path class="cls-8" d="M196.55,156.38a65.06,65.06,0,0,0-8.16-1.09,47,47,0,0,0-8,.25,33,33,0,0,0-3.87.71,36.4,36.4,0,0,0-3.75,1,35,35,0,0,0-6.9,3.36,27.46,27.46,0,0,0-5.79,4.89,29.5,29.5,0,0,0-4.34,6.26,42.73,42.73,0,0,0-4.18,15.44,26.19,26.19,0,0,1-1-8.43,29.92,29.92,0,0,1,.48-4.31,31.78,31.78,0,0,1,1.18-4.24,26.62,26.62,0,0,1,11.21-13.52,31.88,31.88,0,0,1,16.77-4.63l2.17.06c.72,0,1.43.16,2.15.24a17,17,0,0,1,2.12.34,20.83,20.83,0,0,1,2.08.46A33.51,33.51,0,0,1,196.55,156.38Z" transform="translate(0 0)"/><path class="cls-9" d="M200.26,158.43a12.67,12.67,0,0,0-2.65-4.57,15.35,15.35,0,0,0-4-3.11,35.2,35.2,0,0,0-4.75-2.1c-.84-.27-1.69-.57-2.55-.89a22.82,22.82,0,0,1-2.64-1,20.92,20.92,0,0,1,2.84-.32c1,0,1.9.1,2.86.19a16,16,0,0,1,5.45,2,11.79,11.79,0,0,1,4.22,4.14A8.42,8.42,0,0,1,200.26,158.43Z" transform="translate(0 0)"/><path class="cls-10" d="M220.59,198.59c1.54,3.6,2.73,7.21,4.13,10.66a41.28,41.28,0,0,0,2.29,4.94,29.07,29.07,0,0,1,2.31,5.61,25.24,25.24,0,0,1,.53,12,21.85,21.85,0,0,1-5.37,10.38,28,28,0,0,0,3.17-10.7,24.12,24.12,0,0,0-.13-5.44,25.74,25.74,0,0,0-1.2-5.28,26.28,26.28,0,0,0-2.15-4.95,25,25,0,0,1-2.27-5.57A36.48,36.48,0,0,1,220.59,198.59Z" transform="translate(0 0)"/><path class="cls-11" d="M189.42,198.71a12.63,12.63,0,0,1-1.5,2.51,14.63,14.63,0,0,1-2,2.22,19.94,19.94,0,0,1-2.4,1.86,17.07,17.07,0,0,1-2.75,1.52l-2.49.34.38-1.93,1.65-8.14,1.28,6.21c.29-.08.57-.15.85-.24a19.63,19.63,0,0,0,2.54-1,15.48,15.48,0,0,0,2.38-1.43A13.53,13.53,0,0,0,189.42,198.71Z" transform="translate(0 0)"/><path class="cls-12" d="M179.82,370.21a3.23,3.23,0,0,1,1.15,3,8.2,8.2,0,0,1-.95,3.2,22.62,22.62,0,0,1-3.83,5.21L174,383.78a9.66,9.66,0,0,0-1.67,2.08,8.36,8.36,0,0,0-1.23,4.89c.16,3.51,2.23,7.08,5,9.75a18.24,18.24,0,0,0,10.57,5.23c-4.16.59-8.52-1-12-3.57a19.34,19.34,0,0,1-4.51-4.77,14,14,0,0,1-2.38-6.41,10.58,10.58,0,0,1,1.71-6.89,12.94,12.94,0,0,1,2.34-2.6c.45-.41.83-.7,1.22-1l1.18-.93a30.42,30.42,0,0,0,4.22-4.11A8.67,8.67,0,0,0,180,373,3,3,0,0,0,179.82,370.21Z" transform="translate(0 0)"/><path class="cls-13" d="M221,223.37a.72.72,0,0,0-.91.4l0,.09a18.57,18.57,0,0,1-3.14,5,37.88,37.88,0,0,1-4.2,4.3c-.42.35-.84.7-1.27,1L210,235.27a61.5,61.5,0,0,1-7.28,4.65,24.49,24.49,0,0,1-5.43,2.36,8.63,8.63,0,0,1-5.46,0,7.82,7.82,0,0,1-3.86-3.7A25,25,0,0,1,186,234s-.27-1.34-.94-1.34a3.47,3.47,0,0,1-2.61-.86,3.21,3.21,0,0,1-.61-2.4v0a29.77,29.77,0,0,0,6.57-.82V227c-1.11.21-2.23.4-3.36.6a25.57,25.57,0,0,1-4.71.25.82.82,0,0,1-.42,0,.57.57,0,0,1-.28-.17.69.69,0,0,1-.17-.67,27,27,0,0,0,.27-2.75,8.45,8.45,0,0,0-.09-1.48,2.57,2.57,0,0,0-.3-.8,1.37,1.37,0,0,0-.44-.42,1.14,1.14,0,0,0-.55-.12,12.08,12.08,0,0,1-5.12-.87,3,3,0,0,1-1.7-1.71,3.47,3.47,0,0,1,.4-2.4l1.45-2.27c.2-.43.42-.82.61-1.23s.38-.85.53-1.29a22.24,22.24,0,0,0,.8-10.91l0-.2-.22-.17a10.57,10.57,0,0,1-2.48-3.8c-.26-.61-.51-1.22-.71-1.85-.31-.85-.59-1.7-.86-2.55s-.53-1.5-.81-2.24-.55-1.45-.86-2.16a15.16,15.16,0,0,0-2.77-4.21,10.59,10.59,0,0,0-.15,5.11,19.79,19.79,0,0,0,1.36,4.13c.08.2.17.39.25.58a25.43,25.43,0,0,0,2.07,3.51l.58.8a19.06,19.06,0,0,0,3.33,3.58,20.34,20.34,0,0,1-.1,10.19c-.15.43-.31.81-.46,1.23l-.55,1.19-1.44,2.32a4.14,4.14,0,0,0-.44,2.78,3.53,3.53,0,0,0,1.92,2.08,13.79,13.79,0,0,0,5.38,1.32c.17.05.05,0,.12.1a1.44,1.44,0,0,1,.1.46,6.34,6.34,0,0,1,0,1.23,21.63,21.63,0,0,1-.42,2.6,2.07,2.07,0,0,0,.47,1.84,1.87,1.87,0,0,0,.83.55,2,2,0,0,0,.91.13h.09a4.35,4.35,0,0,0,1,3.37,4.15,4.15,0,0,0,2.75,1.28.36.36,0,0,1,.32.27,18.78,18.78,0,0,0,1.84,5.2,13.33,13.33,0,0,0,2,2.63,7.89,7.89,0,0,0,2.88,1.75,9.53,9.53,0,0,0,6.44-.25,26,26,0,0,0,5.49-2.86c2.4-1.53,4.73-3.13,7-4.86a40.72,40.72,0,0,1,1.24,10.2,27.28,27.28,0,0,1-1.11,7.57,22.34,22.34,0,0,1-3.47,6.78,25.18,25.18,0,0,1-5.45,5.59,45.64,45.64,0,0,1-6.68,4.5c-1.44.8-2.93,1.55-4.44,2.24-3-2.11-6.07-4.12-9.1-6.14-1.92-1.29-3.82-2.56-5.62-3.9-.9-.66-1.76-1.34-2.56-2l-2.67-2.3q-2.37-2-4.57-4.11a11.46,11.46,0,0,1-.88-.84c-1.47-1.43-2.92-2.89-4.27-4.43a56.22,56.22,0,0,1-7.61-10.8A50.14,50.14,0,0,1,148.22,226a57.28,57.28,0,0,1-1.48-13.08A66.29,66.29,0,0,1,151.83,187a56.92,56.92,0,0,1,6.58-11.44,39.48,39.48,0,0,1,9.54-9,32.8,32.8,0,0,1,12.32-4.76,43.5,43.5,0,0,1,13.66.11,37.41,37.41,0,0,0-13.87-2.14,32.17,32.17,0,0,0-13.87,3.75,38.13,38.13,0,0,0-6.09,4,48.4,48.4,0,0,0-4.22,4c-.35.35-.69.73-1,1.09a56.14,56.14,0,0,0-4.28,5.7s-.06.09-.09.12a63.15,63.15,0,0,0-9.68,34.42,60.33,60.33,0,0,0,1.76,14.44A53.56,53.56,0,0,0,148,240.88a66.65,66.65,0,0,0,13.63,16.34,39.36,39.36,0,0,0-3.11,5.17c-2.35,4.83-3.57,10.62-2.23,16.15a20.93,20.93,0,0,0,3.44,7.59,29.57,29.57,0,0,0,4.48,4.86,23.72,23.72,0,0,0-2.05,3.25,17.94,17.94,0,0,0-1.22,14,20.06,20.06,0,0,0,3.47,6.24,27.49,27.49,0,0,0,4.6,4.61c-.61.61-1.2,1.24-1.78,1.89a32.19,32.19,0,0,0-6.42,10.64,19.44,19.44,0,0,0-.09,12.89,19.79,19.79,0,0,0,3.15,5.74,30.86,30.86,0,0,0,4.37,4.68c3,2.54,6,5.13,8.78,7.86a55.69,55.69,0,0,1,7.58,8.67,17.08,17.08,0,0,1,2.34,4.88,7.77,7.77,0,0,1,.19,2.48,6,6,0,0,1-.84,2.33,11,11,0,0,1-4.2,3.53,36.46,36.46,0,0,1-5.48,2.27,29.59,29.59,0,0,0,8.76-.94,26.28,26.28,0,0,0,8.22-3.56A20.3,20.3,0,0,0,200,375.9a22.42,22.42,0,0,0,2.9-8.74,34.9,34.9,0,0,0-.26-9.08,50.61,50.61,0,0,0-2.31-8.61A68.06,68.06,0,0,0,194.84,338a48.87,48.87,0,0,0,4.56-2.92,34.29,34.29,0,0,0,6.8-6.41,22.47,22.47,0,0,0,4.45-8.68,18.91,18.91,0,0,0-.29-10,24.69,24.69,0,0,0-4.53-8.49c-.51-.63-1-1.23-1.57-1.81a13.53,13.53,0,0,0,1.62-1.95,9.28,9.28,0,0,0,1.44-3.62,9.55,9.55,0,0,0-.29-3.92,17.77,17.77,0,0,0-3.71-6.43,61.31,61.31,0,0,0-10.68-9.38l-.37-.27c1.19-.39,2.38-.84,3.55-1.33,5.19-2.28,10.27-5.44,14-10.15a24.41,24.41,0,0,0,5.28-16.77,26.54,26.54,0,0,0-2.05-8.49,27.07,27.07,0,0,0-1.36-2.82h0c.46-.34.9-.71,1.35-1.08,3.09-2.68,6.08-5.41,8.28-9.13a.2.2,0,0,0,.06-.11A.71.71,0,0,0,221,223.37ZM206,319c-1.1,5.06-4.64,9.63-8.82,13.52-1.21,1.13-2.46,2.21-3.77,3.27l-.36.28c-3.12,2.48-6.46,4.81-9.84,7.13a61.78,61.78,0,0,0,10.82-4.69c1.5,3.88,2.92,7.76,4.05,11.71a44.34,44.34,0,0,1,2,16.65,21.33,21.33,0,0,1-2.39,7.76,19.74,19.74,0,0,1-5.35,6.17,28.55,28.55,0,0,1-7.38,4l-.12,0a10.24,10.24,0,0,0,3.09-2.41,7.74,7.74,0,0,0,1.58-3.1,10.5,10.5,0,0,0,.15-3.44,18.43,18.43,0,0,0-2.25-6.1c-4.27-7.29-10.39-12.77-16.41-18a22.06,22.06,0,0,1-6.54-8.59A16.75,16.75,0,0,1,164,332.6a32.85,32.85,0,0,1,4.88-10.3c.47-.73,1-1.44,1.49-2.13a45.64,45.64,0,0,0,10.82,5.72,93.74,93.74,0,0,1-9.47-7.5,8.28,8.28,0,0,1-.81-.76l-.16-.14a26,26,0,0,1-6.73-10.2,16.56,16.56,0,0,1-.69-5.94,19.81,19.81,0,0,1,1.4-6,28.15,28.15,0,0,1,1.34-3,42.67,42.67,0,0,0,12.09,6.21s0,.07,0,.11a11.5,11.5,0,0,0-.31,4.79,12.3,12.3,0,0,0,5,7.88,19.89,19.89,0,0,0,8.14,3.68,30.64,30.64,0,0,1-7-4.95,14.35,14.35,0,0,1-1.12-1.25A85,85,0,0,0,194,305.61a38.56,38.56,0,0,0,6.38-3l.76-.48c.44.61.86,1.22,1.25,1.85C205.39,308.67,207.19,313.89,206,319Zm-4.81-33.29a15.44,15.44,0,0,1,3.5,5.3,6.58,6.58,0,0,1-.55,5.77,9.26,9.26,0,0,1-1.25,1.66,16.73,16.73,0,0,1-2.7,2.45l-.66.46a38.64,38.64,0,0,1-5.95,3.3,94.49,94.49,0,0,1-11,4.15,11.18,11.18,0,0,1-1.28-1.83,10.44,10.44,0,0,1-1.28-3.71,11.78,11.78,0,0,1,.26-3.91,21.2,21.2,0,0,1,1.45-3.85,63.61,63.61,0,0,1,4.55-7.38,23.24,23.24,0,0,0-6.28,6.41,18.23,18.23,0,0,0-1.8,3.84,62,62,0,0,1-11.06-7.85l-.26-.22-1.17-1.12-.19-.2-1.24-1.4a12,12,0,0,1-1.16-1.46,17.35,17.35,0,0,1-1.08-1.51l-.93-1.59-.75-1.65a17.81,17.81,0,0,1-1.09-3.46A25.16,25.16,0,0,1,161,263.45a48,48,0,0,1,2.23-4.91c1.36,1.15,2.77,2.26,4.19,3.34L170.1,264c1,.8,1.93,1.51,2.93,2.19,2,1.36,3.94,2.6,5.92,3.82,2.46,1.51,4.9,3,7.33,4.49.54.32,1.1.67,1.65,1,.91.58,1.83,1.17,2.75,1.79A61.67,61.67,0,0,1,201.23,285.66Z" transform="translate(0 0)"/><path class="cls-14" d="M349.64,250.83c-3.64,6.62-15,13.54-21,5.8a11.43,11.43,0,0,1-1.75-3.32,35.78,35.78,0,0,1-4.91,3.47c-3.3,1.93-6.87,3.57-10.81,3a9.18,9.18,0,0,1-6.73-5c-3.18-5.61-2-12.79.51-18.49a29.69,29.69,0,0,1,6.48-9.38,25.85,25.85,0,0,1,4.42-3.53c5.73-3.57,14.24-5.44,20.25-1.92a10.72,10.72,0,0,1,3.16-.77c1.62-.13,4.11.57,4,2.63-.12,2.36-1.22,4.75-1.83,7-.5,1.88-.94,3.77-1.36,5.66-.93,4.14-1.71,8.34-2.37,12.53-.34,2.2-1.71,8.8,2.49,7.67,2.82-.76,4.93-3.1,6.4-5.51C347.18,249.76,350.45,249.38,349.64,250.83Zm-18.21-24.32a6.34,6.34,0,0,0-3.81-1.18c-4.38.18-7.65,4.13-9.56,7.68a27.5,27.5,0,0,0-3,14.6,10.71,10.71,0,0,0,1.18,4.65c.93,1.59,1.92,1.46,3.47.73a17.28,17.28,0,0,0,2.37-1.42,32.13,32.13,0,0,0,4.19-3.5,42.18,42.18,0,0,1,.91-6.77,86.56,86.56,0,0,1,2.16-8.82A51,51,0,0,1,331.43,226.51Z" transform="translate(0 0)"/><path class="cls-15" d="M382.08,250.83a15,15,0,0,1-5.24,6,15.87,15.87,0,0,1-6.69,2.31,26.3,26.3,0,0,1-4.52.12,17.74,17.74,0,0,1-1.78,1.89,22.71,22.71,0,0,1-9,5.08c-2.79.83-7.87,2-10.05-.67-1.34-1.58-.61-4,.22-5.64a12.73,12.73,0,0,1,5.31-5.37,12.57,12.57,0,0,1,7.05-1.32,10.89,10.89,0,0,1,2.1.32,9,9,0,0,0,.08-1.16,4.57,4.57,0,0,0,0-.64c-.05-2.27-1.89-6.84-3.51-10.5l-.22.27c-1.11,1.47-2.19,3-3.19,4.51-1.17,1.82-2.17,3.74-3.39,5.52-.46.66-3.71.88-2.89-.4,1.48-2.28,2.32-3.77,3.5-5.67,1-1.54,2-3.05,3.09-4.5.61-.8,1.24-1.61,1.88-2.41-.63-1.39-1.12-2.39-1.22-2.67-2.05-5.66-.92-11.83,4.29-15.29a15.45,15.45,0,0,1,13.31-1.73c4,1.53,5.14,5.69,2.33,8.92-1.68,2-4.23,3.12-6.29,4.65-.78.58-1.83,1.07-2.61,1.67.3.57,1,1.61,1.31,2.16a30.33,30.33,0,0,1,3.56,8.64,16.75,16.75,0,0,1-1.68,11,15.47,15.47,0,0,0,4.31.32c3-.37,5.44-2.91,6.67-5.24a2.45,2.45,0,0,1,2.08-1.25C381.55,249.72,382.43,250.07,382.08,250.83ZM358.54,257a1.11,1.11,0,0,1-.3-.08,9.55,9.55,0,0,0-1.73-.4,7.42,7.42,0,0,0-3.16.13c-1.56.45-4.64,3.58-3.56,5.44.79,1.35,3.18.05,4.13-.45a10.85,10.85,0,0,0,3.87-3.31c.17-.25.32-.51.47-.78A3.55,3.55,0,0,0,358.54,257Zm8.57-27.43c2.08-1.73,4.69-4.76.78-6.36-2.3-1-4.07,0-4.8,2.29a7.8,7.8,0,0,0-.24,3.1,9.35,9.35,0,0,0,.81,3A15.72,15.72,0,0,0,367.11,229.54Z" transform="translate(0 0)"/><path class="cls-16" d="M414.38,250.83a15,15,0,0,1-5.24,6,15.86,15.86,0,0,1-6.7,2.31,26.15,26.15,0,0,1-4.51.12,17.74,17.74,0,0,1-1.78,1.89,22.68,22.68,0,0,1-9,5.08c-2.78.83-7.86,2-10-.67-1.33-1.58-.61-4,.22-5.64a12.73,12.73,0,0,1,5.31-5.37,12.57,12.57,0,0,1,7-1.32,11.11,11.11,0,0,1,2.11.32,11.28,11.28,0,0,0,.07-1.16,4.57,4.57,0,0,0,0-.64c-.05-2.27-1.89-6.84-3.51-10.5l-.22.27c-1.12,1.47-2.19,3-3.19,4.51-1.17,1.82-2.17,3.74-3.39,5.52-.46.66-3.71.88-2.89-.4,1.47-2.28,2.32-3.77,3.5-5.67,1-1.54,2-3.05,3.09-4.5.61-.8,1.24-1.61,1.88-2.41-.64-1.39-1.12-2.39-1.22-2.67-2.05-5.66-.92-11.83,4.29-15.29a15.45,15.45,0,0,1,13.31-1.73c4,1.53,5.14,5.69,2.33,8.92-1.68,2-4.23,3.12-6.29,4.65-.78.58-1.83,1.07-2.61,1.67.3.57,1,1.61,1.31,2.16a30.33,30.33,0,0,1,3.56,8.64,16.75,16.75,0,0,1-1.68,11,15.44,15.44,0,0,0,4.31.32c3-.37,5.44-2.91,6.67-5.24a2.45,2.45,0,0,1,2.08-1.25C413.85,249.72,414.73,250.07,414.38,250.83ZM390.84,257a1.11,1.11,0,0,1-.3-.08,9.55,9.55,0,0,0-1.73-.4,7.42,7.42,0,0,0-3.16.13c-1.56.45-4.64,3.58-3.56,5.44.79,1.35,3.18.05,4.13-.45a10.85,10.85,0,0,0,3.87-3.31c.17-.25.32-.51.47-.78A4.73,4.73,0,0,0,390.84,257Zm8.57-27.43c2.08-1.73,4.69-4.76.78-6.36-2.3-1-4.07,0-4.8,2.29a7.8,7.8,0,0,0-.24,3.1,9.35,9.35,0,0,0,.81,3A16,16,0,0,0,399.41,229.54Z" transform="translate(0 0)"/><path class="cls-17" d="M454.12,251.12a34.78,34.78,0,0,1-12.26,11.17,5.85,5.85,0,0,1-.56.28q-1.12,5.16-2.38,10.28c-1,4.14-2.23,8.24-4.83,11.71A19.55,19.55,0,0,1,417,292.23c-10.23-1.06-13.46-14-7.61-21.49,4.69-6.05,12.53-9.39,19.91-8q.57-2.79,1.15-5.55l.46-2.12a17.38,17.38,0,0,1-2.61,2.12c-4.23,2.76-9.94,4.93-14.34,1.21-4.79-4.05-3.56-11.14-2.51-16.49a91.05,91.05,0,0,1,2.18-9.09c.93-3,1.81-6.27,3.64-8.9,1.35-1.95,4.09-3,6.37-3.16,1.65-.13,4,.56,4,2.61-.07,2.43-1.27,5-1.89,7.31-.55,2.08-1,4.19-1.48,6.29a90.7,90.7,0,0,0-2.12,13.4c-.08,1.33-.5,4.58.88,5.47.94.61,2.71-.05,3.63-.56a14.24,14.24,0,0,0,5.49-6.48,1.94,1.94,0,0,1,.23-.29c1.85-8.45,3.73-16.9,5.7-25.33.58-2.48,2.89-4,5.31-4.53,1.57-.36,5.21-.27,4.94,2.21-.79,7.34-1.74,14.66-3,21.93q-1.46,8.24-3.18,16.41a23,23,0,0,0,2.84-1.78,28.17,28.17,0,0,0,6.37-6.7,2.58,2.58,0,0,1,2.31-.93C454.34,249.89,454.52,250.51,454.12,251.12Zm-25.63,15.19c-3.52-1-7.33-.81-10.37,1.52a8.73,8.73,0,0,0-2.53,11.31,8.08,8.08,0,0,0,4.5,3.68,4.85,4.85,0,0,0,2.58.56h.07a6.32,6.32,0,0,0,.89-1.2,19.36,19.36,0,0,0,1.79-4.18A120.12,120.12,0,0,0,428.49,266.31Z" transform="translate(0 0)"/><path class="cls-1" d="M267.89,286.31l-3.22,16.1h.41c5.48,0,9.86-6.31,9.86-11.75,0-4.13-2.54-7.83-9-7.83-8,0-17.1,5.65-17.1,17.62a10.53,10.53,0,0,0,1,4.93c-4.52,0-7.32-1.81-7.32-6.67,0-10,11.9-19.22,24.83-19.22,10.06,0,14.58,5.58,14.58,11.53A13.78,13.78,0,0,1,275,302.56c5.82,1.23,8.08,6.23,8.08,11.67,0,7-3.56,20.89-15,20.89-2.94,0-6.77-.94-6.77-5.37a12.22,12.22,0,0,1,.89-4.2c1.71,1.88,3,2.61,4.58,2.61,5,0,6.78-7.54,6.78-13.06,0-5.07-1.51-9.21-6.5-9.21-.55,0-1.92.07-3.15.22l-5.61,27.78h-9.85l9.3-46.13Z" transform="translate(0 0)"/><path class="cls-1" d="M300,297.62l-.89,4.5c2.4-2.18,5-4.5,8.28-4.5,3.08,0,4.72,2.69,4.72,5.44,0,2.54-1.57,5.3-4.92,5.3-3.84,0-1.92-4.79-4-4.79s-3.29,1.09-5,2.76l-5.47,27.56h-9.85l7.25-36.27Z" transform="translate(0 0)"/><path class="cls-1" d="M344,297.62l-4.93,24.66a11,11,0,0,0-.27,2.33c0,2,.89,3.11,2.8,3.11,2.67,0,4.52-3.19,5.55-6.82h2.87c-3.9,11.83-10.06,13.43-13.75,13.43s-6.3-2.33-6.71-6.68c-2.12,3.34-5.33,6.68-10.19,6.68-4.65,0-9.1-3.05-9.1-11.68,0-9.79,5.68-25.39,17.58-25.39,3.9,0,5.54,1.59,5.54,3.7v.51l.76-3.85Zm-23.6,24c0,5.59,2.18,5.66,3.42,5.66,2,0,4.85-2.18,5.67-6.39l3.29-16.39a2.74,2.74,0,0,0-2.81-2.75C324.19,301.76,320.43,314.81,320.43,321.63Z" transform="translate(0 0)"/><path class="cls-18" d="M361.68,297.62l-4.93,24.66a11,11,0,0,0-.27,2.33c0,2,.89,2.68,2.8,2.68,2.67,0,5.13-2.76,6.16-6.39h2.87c-3.9,11.83-10.67,13.43-14.37,13.43-4.1,0-7.31-2.62-7.31-8.71a25.39,25.39,0,0,1,.54-4.72l4.66-23.28Zm-3.08-15.45a5.66,5.66,0,0,1,5.47,5.8,5.45,5.45,0,1,1-5.47-5.8Z" transform="translate(0 0)"/><path class="cls-1" d="M401.15,283.12l-7.87,39.16a11,11,0,0,0-.27,2.33c0,2,.89,2.68,2.8,2.68,2.67,0,4.52-2.76,5.55-6.39h2.87c-3.9,11.83-10.06,13-13.75,13s-6.16-2.18-6.71-6.24c-2,3.34-5.27,6.68-10.12,6.68-4.66,0-9.1-3.05-9.1-11.68,0-9.79,5.68-25.39,17.58-25.39,3.9,0,5.54,1.59,5.54,3.7v.29L391,284.57ZM383.7,320.9l3.36-16.61a2.79,2.79,0,0,0-2.81-2.53c-5.81,0-9.58,13.05-9.58,19.87,0,5.59,2.19,5.66,3.42,5.66,1.92,0,4.72-2,5.61-6Z" transform="translate(0 0)"/><path class="cls-1" d="M415.86,297.62l-4.93,24.66a8.06,8.06,0,0,0-.2,1.82c0,1.67.48,3.19,2,3.19,2.67,0,4.44-2.76,5.47-6.39l4.65-23.28h9.92l-8.34,42.07C422.42,350.07,416.54,352,412,352a7.88,7.88,0,0,1-8.08-7.83c0-6.75,5.34-8.85,11.84-10.88l.68-3.19c-2.94,3.55-6,4.21-8.35,4.21-4.1,0-7.31-2.62-7.31-8.71a25.39,25.39,0,0,1,.54-4.72L406,297.62Zm-5.41,47.95c1.37,0,3.15-1.38,4-5.66l.82-4.28c-4.31,1.52-7.59,3.63-7.59,7.54A2.82,2.82,0,0,0,410.45,345.57Z" transform="translate(0 0)"/><path class="cls-1" d="M249.7,345.12c0-4.11,2.34-6.59,6-6.59,3.06,0,5.39,2,5.6,4.8h-2.6a3,3,0,0,0-3-2.59c-2,0-3.32,1.69-3.32,4.37s1.28,4.4,3.32,4.4a2.87,2.87,0,0,0,3-2.43h2.6c-.31,2.84-2.49,4.64-5.61,4.64C252,351.72,249.7,349.24,249.7,345.12Z" transform="translate(0 0)"/><path class="cls-1" d="M279.26,345.13c0,4.06-2.37,6.59-6.15,6.59s-6.15-2.53-6.15-6.59,2.37-6.6,6.15-6.6S279.26,341.07,279.26,345.13Zm-9.57,0c0,2.67,1.33,4.36,3.42,4.36s3.42-1.69,3.42-4.36-1.33-4.37-3.42-4.37S269.69,342.45,269.69,345.13Z" transform="translate(0 0)"/><path class="cls-1" d="M293.59,351.5h-8.24V338.75H288v10.54h5.57Z" transform="translate(0 0)"/><path class="cls-1" d="M307.79,351.5h-8.24V338.75h2.67v10.54h5.57Z" transform="translate(0 0)"/><path class="cls-1" d="M322.19,351.5h-8.44V338.75h8.44V341h-5.77V344h5.45v2.05h-5.45v3.21h5.77Z" transform="translate(0 0)"/><path class="cls-1" d="M328.1,345.12c0-4.11,2.34-6.59,6-6.59,3.07,0,5.4,2,5.6,4.8h-2.6a2.94,2.94,0,0,0-3-2.59c-2,0-3.31,1.69-3.31,4.37s1.28,4.4,3.32,4.4a2.87,2.87,0,0,0,3-2.43h2.6c-.3,2.84-2.48,4.64-5.61,4.64C330.42,351.72,328.1,349.24,328.1,345.12Z" transform="translate(0 0)"/><path class="cls-1" d="M348.41,351.5V341h-3.69v-2.2h10V341h-3.69V351.5Z" transform="translate(0 0)"/><path class="cls-1" d="M360.62,351.5V338.75h2.67V351.5Z" transform="translate(0 0)"/><path class="cls-1" d="M381.69,345.13c0,4.06-2.38,6.59-6.15,6.59s-6.15-2.53-6.15-6.59,2.36-6.6,6.15-6.6S381.69,341.07,381.69,345.13Zm-9.58,0c0,2.67,1.33,4.36,3.43,4.36s3.42-1.69,3.42-4.36-1.34-4.37-3.42-4.37S372.11,342.45,372.11,345.13Z" transform="translate(0 0)"/><path class="cls-1" d="M387.77,351.5V338.75H390l5.95,8.31H396v-8.31h2.56V351.5h-2.21l-6-8.35h-.08v8.35Z" transform="translate(0 0)"/><path class="cls-18" d="M358.23,293.74a18.58,18.58,0,0,1-8.11-1.81,26.34,26.34,0,0,1-8.33-6.82l-.06-.07-.1-.11c2.77-3.24,4.28-5,7.34-5.1h.71c3,.13,4.76,1.86,7.78,5.05l0,0h0Z" transform="translate(0 0)"/><path class="cls-19" d="M341.38,293.91a19.88,19.88,0,0,1-8.77-2,18.4,18.4,0,0,1-7.56-7.2l.37-.32.08-.06c3.38-3,5.15-4.64,8-4.67h0c2.56,3.53,4.35,5.35,7.72,5.38h.45l.06.07a26.34,26.34,0,0,0,8.33,6.82A17.8,17.8,0,0,1,341.38,293.91Z" transform="translate(0 0)"/><path class="cls-20" d="M333.53,279.67h0Z" transform="translate(0 0)"/><path class="cls-20" d="M325.05,284.72l-.23-.38,0-.06.24,0,.48,0-.08.06Z" transform="translate(0 0)"/><path class="cls-19" d="M309.29,283h0c-2.89-.32-4.32-2.14-7.06-5.46l-.06-.07-.3-.36a22.82,22.82,0,0,1,8.72-6.34,20.19,20.19,0,0,1,9-1.14q.69.06,1.35.15c.38.06.74.13,1.09.21a15.83,15.83,0,0,1,2,.59,14.31,14.31,0,0,1,3.3,1.74c-3.65,1.49-6.45,4-8.85,6.07l-.08.07-.2,0-.26,0C314.54,278.11,312.48,279.75,309.29,283Z" transform="translate(0 0)"/><path class="cls-20" d="M301.71,277.51h-.25l.06-.06.32-.35.3.36.06.07Z" transform="translate(0 0)"/><path class="cls-20" d="M309.28,283h0Z" transform="translate(0 0)"/><path class="cls-20" d="M293.87,282.72l-.17.23,0-.28h.24Z" transform="translate(0 0)"/><path class="cls-21" d="M341.28,285.05c-3.37,0-5.16-1.85-7.72-5.38h0l.05-.05c2.12-2.27,4.49-5.11,7.85-6.9a15.34,15.34,0,0,1,7.17-1.75,18.14,18.14,0,0,1,7.84,1.65c-3.31,1.8-5.41,4.52-7.17,6.8l-.27.36,0,.06c-3.06.11-4.57,1.86-7.34,5.1l-.1.12Z" transform="translate(0 0)"/><path class="cls-20" d="M333.56,279.67h0Z" transform="translate(0 0)"/><path class="cls-21" d="M323.44,293.09a19.37,19.37,0,0,1-4.28-.88,14.52,14.52,0,0,1-1.79-.72c-.28-.13-.57-.27-.81-.41s-.44-.29-.66-.44c-3-2.08-4.88-5.12-6.58-7.58,0,0,0,0,0-.06h0c3.19-3.24,5.25-4.88,8.6-4.6l.26,0,.08.13c2.13,3.47,3.45,5.35,6.55,5.73l0,.06.23.38a18.4,18.4,0,0,0,7.56,7.2,18.73,18.73,0,0,1-4.22,1.07A22.16,22.16,0,0,1,323.44,293.09Z" transform="translate(0 0)"/><path class="cls-20" d="M325,284.31l.48,0-.08.06-.37.32-.23-.38,0-.06Z" transform="translate(0 0)"/><path class="cls-20" d="M309.28,283h0Z" transform="translate(0 0)"/><path class="cls-20" d="M301.46,277.51l.06-.06.32-.35.3.36.06.07-.49,0Z" transform="translate(0 0)"/><path class="cls-20" d="M293.7,283l0-.28h.24l-.05.06Z" transform="translate(0 0)"/><path class="cls-20" d="M349,279.77l.27-.36.32.35.07.07H349Z" transform="translate(0 0)"/><path class="cls-18" d="M325,284.31l-.24,0c-3.1-.38-4.42-2.26-6.55-5.73l.12-.1.08-.07c2.4-2.05,5.2-4.58,8.85-6.07.56-.24,1.26-.44,1.77-.64a15.86,15.86,0,0,1,1.7-.5,14.37,14.37,0,0,1,3.86-.33,15.46,15.46,0,0,1,6.84,1.87c-3.36,1.79-5.73,4.63-7.85,6.9l-.05.05h0c-2.88,0-4.65,1.7-8,4.67Z" transform="translate(0 0)"/><path class="cls-20" d="M333.53,279.67h0Z" transform="translate(0 0)"/><path class="cls-20" d="M325,284.31l.48,0-.08.06-.37.32-.23-.38,0-.06Z" transform="translate(0 0)"/><path class="cls-18" d="M308.75,291.85a14.84,14.84,0,0,1-7.21-2.24c-3.07-1.89-5.36-4.65-7.36-6.89l-.07-.07-.1-.11c2.52-3.28,4.27-5,7.45-5h.25l.49,0c2.74,3.32,4.17,5.14,7.06,5.46h0s0,0,0,.06c1.7,2.46,3.62,5.5,6.58,7.58A15.87,15.87,0,0,1,308.75,291.85Z" transform="translate(0 0)"/><path class="cls-20" d="M309.28,283h0Z" transform="translate(0 0)"/><path class="cls-20" d="M301.52,277.45l.32-.35.3.36.06.07-.49,0h-.25Z" transform="translate(0 0)"/><path class="cls-22" d="M292.9,224.64c2.27-3.19,3.23-7.56-.09-10.52-3-2.72-7.81-2.48-9.16,1.7s1.26,8.67,3.49,11.9c2.58,3.76,5.64,7.31,7.33,11.61,3.38,8.62-1.23,17.24-9.32,21.07-6.36,3-15.57,2.05-19.93-4-4-5.51-1.59-14.39,4.89-16.8,1.34-.49,3.09.17,1.7,1.6-2.89,3-4.63,6.62-2.93,10.76a9.65,9.65,0,0,0,9.44,5.54c3.2-.34,5.27-2.38,6.57-5.19,1.76-3.82,1.11-7.75-.67-11.46-2-4.11-4.94-7.69-6.65-11.95a16.11,16.11,0,0,1-.38-12.16c2.63-7,12-10.67,18.59-6.88,6.42,3.68,5.18,12.85-1,15.94C293.84,226.27,292,225.9,292.9,224.64Z" transform="translate(0 0)"/><path class="cls-1" d="M165.18,484.28V462.94h1.17v21.34Z" transform="translate(0 0)"/><path class="cls-1" d="M172.75,464.87v4h3.09v1h-3.09v10.86c0,1.81.68,2.54,2.23,2.54l1.06,0v1l-1.22,0c-2.25,0-3.21-1-3.21-3.53V469.89h-2.29v-1h2.29v-4Z" transform="translate(0 0)"/><path class="cls-1" d="M179.33,469.52l1.39-6.58h1.21l-1.63,6.58Z" transform="translate(0 0)"/><path class="cls-1" d="M188.37,468.67c3.11,0,5.24,1.79,5.52,4.64h-1.11a4.09,4.09,0,0,0-4.42-3.65c-2.38,0-4.11,1.31-4.11,3.13,0,1.49,1,2.35,3.5,2.93l2.13.5c3.06.73,4.26,1.85,4.26,4,0,2.51-2.34,4.29-5.65,4.29s-5.63-1.9-5.87-4.57h1.14c.28,2.13,2.19,3.58,4.76,3.58s4.47-1.34,4.47-3.23c0-1.62-1-2.48-3.45-3.07l-2.22-.52c-2.88-.68-4.2-1.91-4.2-3.87C183.12,470.41,185.31,468.67,188.37,468.67Z" transform="translate(0 0)"/><path class="cls-1" d="M218,479.43c-.48,3.1-3.32,5.19-7.23,5.19-4.88,0-7.81-3.12-7.81-8.19s3-8.34,7.64-8.34,7.53,3.12,7.53,7.94v1.31H207.19v.27a3.54,3.54,0,0,0,3.64,3.82,3.16,3.16,0,0,0,3.19-2Zm-10.75-4.73H214a3.28,3.28,0,0,0-3.32-3.42A3.43,3.43,0,0,0,207.24,474.7Z" transform="translate(0 0)"/><path class="cls-1" d="M220.22,479.73c0-2.89,2.22-4.56,6.17-4.8l4-.23v-1.05c0-1.48-1-2.34-2.66-2.34s-2.64.8-2.84,2h-3.95c.16-3.08,2.78-5.19,7-5.19s6.71,2.1,6.71,5.29v10.9h-4.17v-2.43h-.09a5.43,5.43,0,0,1-4.83,2.68C222.51,484.53,220.22,482.58,220.22,479.73Zm10.16-1.26v-1.15l-3.34.2c-1.62.12-2.53.85-2.53,2s1,1.92,2.44,1.92A3.17,3.17,0,0,0,230.38,478.47Z" transform="translate(0 0)"/><path class="cls-1" d="M244.31,468.09c4,0,6.56,2,6.62,5.09h-4c-.09-1.28-1.11-2.06-2.7-2.06s-2.47.68-2.47,1.7c0,.78.68,1.32,2.07,1.64l3,.65c3.18.71,4.47,2,4.47,4.33,0,3.12-2.87,5.18-7.06,5.18s-6.83-2-7.07-5.13h4.22c.21,1.33,1.26,2.1,3,2.1s2.63-.65,2.63-1.69c0-.8-.53-1.24-1.95-1.58l-2.93-.65c-3-.68-4.54-2.25-4.54-4.58C237.62,470.07,240.24,468.09,244.31,468.09Z" transform="translate(0 0)"/><path class="cls-1" d="M254.3,490.1v-3.32c.14,0,.92,0,1.08,0,1.58,0,2.37-.51,2.66-1.76a6.75,6.75,0,0,0,.14-.76l-5.52-15.86h4.75l3.37,12.39h.07l3.37-12.39h4.56l-5.46,16.2c-1.36,4.07-3.34,5.52-7.39,5.52C255.78,490.15,254.44,490.14,254.3,490.1Z" transform="translate(0 0)"/><path class="cls-1" d="M279.78,464.87v4h3.09v1h-3.09v10.86c0,1.81.68,2.54,2.23,2.54l1.07,0v1l-1.23,0c-2.25,0-3.21-1-3.21-3.53V469.89h-2.29v-1h2.29v-4Z" transform="translate(0 0)"/><path class="cls-1" d="M284.76,476.59c0-4.88,2.76-7.92,6.85-7.92s6.86,3,6.86,7.92-2.78,7.93-6.86,7.93S284.76,481.47,284.76,476.59Zm12.55,0c0-4.27-2.29-6.89-5.7-6.89s-5.7,2.62-5.7,6.89,2.28,6.89,5.7,6.89S297.31,480.85,297.31,476.59Z" transform="translate(0 0)"/><path class="cls-1" d="M309.52,480.17h0v4.11h-1.09V462.94h1.13v10h.05a5.82,5.82,0,0,1,5.72-4.3c3.82,0,6.48,3.19,6.48,7.91s-2.65,7.94-6.48,7.94A5.93,5.93,0,0,1,309.52,480.17Zm0-3.56c0,4,2.31,6.87,5.58,6.87s5.5-2.78,5.5-6.9-2.2-6.88-5.5-6.88S309.52,472.55,309.52,476.61Z" transform="translate(0 0)"/><path class="cls-1" d="M337.26,480c-.51,2.6-2.85,4.54-6.28,4.54-4.19,0-6.86-2.95-6.86-7.91,0-4.78,2.67-7.94,6.74-7.94s6.6,3,6.6,7.46v.65H325.29v.06c0,4.19,2.26,6.66,5.7,6.66,2.83,0,4.66-1.51,5.12-3.52Zm-12-4.16h11c0-3.64-2.19-6.13-5.42-6.13S325.46,472.16,325.3,475.82Z" transform="translate(0 0)"/><path class="cls-1" d="M348.5,480.17h0v4.11h-1.1V462.94h1.14v10h0a5.84,5.84,0,0,1,5.73-4.3c3.81,0,6.47,3.19,6.47,7.91s-2.64,7.94-6.47,7.94A5.91,5.91,0,0,1,348.5,480.17Zm0-3.56c0,4,2.31,6.87,5.57,6.87s5.5-2.78,5.5-6.9-2.2-6.88-5.5-6.88S348.5,472.55,348.5,476.61Z" transform="translate(0 0)"/><path class="cls-1" d="M376.24,480c-.52,2.6-2.86,4.54-6.29,4.54-4.18,0-6.86-2.95-6.86-7.91,0-4.78,2.68-7.94,6.75-7.94s6.59,3,6.59,7.46v.65H364.26v.06c0,4.19,2.26,6.66,5.71,6.66,2.82,0,4.66-1.51,5.11-3.52Zm-12-4.16h11c0-3.64-2.19-6.13-5.43-6.13S364.44,472.16,364.28,475.82Z" transform="translate(0 0)"/><path class="cls-1" d="M379.08,480.14c0-2.63,1.89-4.14,5.44-4.42l5.29-.37V474a4,4,0,0,0-4.33-4.27c-2.68,0-4.36,1.35-4.75,3.67h-1.1c.29-2.86,2.51-4.7,5.87-4.7s5.47,2,5.47,5.22v10.39h-1.11V481h0a6,6,0,0,1-5.67,3.54C381.16,484.52,379.08,482.73,379.08,480.14Zm10.73-1.57V476.3l-5.13.37c-2.88.22-4.45,1.43-4.45,3.47s1.72,3.37,4.1,3.37A5.22,5.22,0,0,0,389.81,478.57Z" transform="translate(0 0)"/><path class="cls-1" d="M406.71,484.28h-1.08v-3.34h0a5.56,5.56,0,0,1-5.38,3.58,5.24,5.24,0,0,1-5.55-5.61v-10h1.14v9.83c0,3,1.85,4.75,4.64,4.75a5,5,0,0,0,5.12-5.35V468.9h1.15Z" transform="translate(0 0)"/><path class="cls-1" d="M412.6,464.87v4h3.09v1H412.6v10.86c0,1.81.68,2.54,2.23,2.54l1.07,0v1l-1.23,0c-2.25,0-3.21-1-3.21-3.53V469.89h-2.29v-1h2.29v-4Z" transform="translate(0 0)"/><path class="cls-1" d="M418.81,464.22a.9.9,0,0,1,1.8,0,.9.9,0,1,1-1.8,0Zm.32,4.68h1.16v15.38h-1.16Z" transform="translate(0 0)"/><path class="cls-1" d="M425,469.89H422.9v-1H425v-2.26c0-2.54,1.34-3.65,3.55-3.65a5.77,5.77,0,0,1,1.25.13v1a4.84,4.84,0,0,0-1.13-.12c-1.58,0-2.51.77-2.51,2.73v2.19h3.5v1h-3.5v14.39H425Z" transform="translate(0 0)"/><path class="cls-1" d="M444.53,484.28h-1.08v-3.34h0a5.56,5.56,0,0,1-5.38,3.58,5.23,5.23,0,0,1-5.55-5.61v-10h1.14v9.83c0,3,1.85,4.75,4.64,4.75a5,5,0,0,0,5.12-5.35V468.9h1.15Z" transform="translate(0 0)"/><path class="cls-1" d="M448.55,462.94h1.16v21.34h-1.16Z" transform="translate(0 0)"/><path class="cls-1" d="M453.84,483.41a1,1,0,0,1,1-1,1,1,0,0,1,0,2A1,1,0,0,1,453.84,483.41Z" transform="translate(0 0)"/></g></svg>